solid 
facet normal 1 0 0
outer loop
vertex -0.1670529991 0.7056729794 0.1243859977
vertex -0.1670529991 0.7056729794 0.4884580076
vertex -0.1670529991 -0.06047400087 0.4884580076

endloop
endfacet
facet normal 1 0 0
outer loop
vertex -0.1670529991 -0.06047400087 0.1243859977
vertex -0.1670529991 0.7056729794 0.1243859977
vertex -0.1670529991 -0.06047400087 0.4884580076

endloop
endfacet
facet normal 0 1 0
outer loop
vertex 0.07643000036 -0.06047400087 0.1243859977
vertex -0.1670529991 -0.06047400087 0.1243859977
vertex 0.07643000036 -0.06047400087 0.4884580076

endloop
endfacet
facet normal -0 1 0
outer loop
vertex -0.1670529991 -0.06047400087 0.1243859977
vertex -0.1670529991 -0.06047400087 0.4884580076
vertex 0.07643000036 -0.06047400087 0.4884580076

endloop
endfacet
facet normal -0.06451654434 0.002623614855 -0.9979131818
outer loop
vertex 0.1304659992 -0.4114089906 0.01325600035
vertex 0.05371600017 -0.4114089906 0.01821799949
vertex 0.09914299846 0.7056729794 0.01821799949

endloop
endfacet
facet normal 0 1 0
outer loop
vertex -0.09690599889 0.7056729794 -0.3998839855
vertex -0.4105339944 0.7056729794 -0.5774829984
vertex -0.1218879968 0.7056729794 -0.3706339896

endloop
endfacet
facet normal 0 1 0
outer loop
vertex -0.06765600294 0.7056729794 -0.4248659909
vertex -0.4105339944 0.7056729794 -0.5774829984
vertex -0.09690599889 0.7056729794 -0.3998839855

endloop
endfacet
facet normal 0.9723621607 -0 0.2334779948
outer loop
vertex -0.1656869948 0.7056729794 -0.2648960054
vertex -0.1656869948 -0.4114089906 -0.2648960054
vertex -0.1567060053 0.7056729794 -0.3022989929

endloop
endfacet
facet normal 0.9969194531 -0 0.07843209803
outer loop
vertex -0.1687040031 0.7056729794 -0.2265480012
vertex -0.1687040031 -0.4114089906 -0.2265480012
vertex -0.1656869948 0.7056729794 -0.2648960054

endloop
endfacet
facet normal 0.9969194531 -0 0.07843209803
outer loop
vertex -0.1687040031 -0.4114089906 -0.2265480012
vertex -0.1656869948 -0.4114089906 -0.2648960054
vertex -0.1656869948 0.7056729794 -0.2648960054

endloop
endfacet
facet normal 0.8526289463 0 -0.5225169063
outer loop
vertex -0.1218879968 0.7056729794 -0.08246299624
vertex -0.1218879968 -0.4114089906 -0.08246299624
vertex -0.1419869959 0.7056729794 -0.1152599975

endloop
endfacet
facet normal 0.8526289463 0 -0.5225169063
outer loop
vertex -0.1218879968 -0.4114089906 -0.08246299624
vertex -0.1419869959 -0.4114089906 -0.1152599975
vertex -0.1419869959 0.7056729794 -0.1152599975

endloop
endfacet
facet normal 0.9238915443 0 -0.3826543391
outer loop
vertex -0.1419869959 0.7056729794 -0.1152599975
vertex -0.1419869959 -0.4114089906 -0.1152599975
vertex -0.1567060053 0.7056729794 -0.1507979929

endloop
endfacet
facet normal 0.7604151368 0 -0.6494373083
outer loop
vertex -0.09690599889 0.7056729794 -0.05321199819
vertex -0.1218879968 -0.4114089906 -0.08246299624
vertex -0.1218879968 0.7056729794 -0.08246299624

endloop
endfacet
facet normal 0 -1 -0
outer loop
vertex 0.1313280016 -0.4114089906 0.120066002
vertex 0.07643000036 -0.4114089906 0.1243859977
vertex 0.05371600017 -0.4114089906 0.01821799949

endloop
endfacet
facet normal 0.07844880223 0 0.9969182014
outer loop
vertex 0.07643000036 -0.4114089906 0.1243859977
vertex 0.1313280016 -0.4114089906 0.120066002
vertex 0.07643000036 -0.06047400087 0.1243859977

endloop
endfacet
facet normal 0 -1 0
outer loop
vertex 0.05371600017 -0.4114089906 0.01821799949
vertex 0.1304659992 -0.4114089906 0.01325600035
vertex 0.1313280016 -0.4114089906 0.120066002

endloop
endfacet
facet normal 1 0 0
outer loop
vertex 0.07643000036 -0.1355410069 0.2898240089
vertex 0.07643000036 -0.06047400087 0.4884580076
vertex 0.07643000036 -0.1344339997 0.3153580129

endloop
endfacet
facet normal 0 -0.9969216585 0.0784040615
outer loop
vertex -0.4105339944 -0.1342799962 0.3058579862
vertex -0.4105339944 -0.1355410069 0.2898240089
vertex 0.07643000036 -0.1355410069 0.2898240089

endloop
endfacet
facet normal -0.001160945161 -0.9990608692 0.04331352562
outer loop
vertex 0.07643000036 -0.1344339997 0.3153580129
vertex -0.4105339944 -0.1342799962 0.3058579862
vertex 0.07643000036 -0.1355410069 0.2898240089

endloop
endfacet
facet normal 0.001214467105 -0.9969201684 -0.07841356844
outer loop
vertex -0.4105339944 -0.1355410069 0.3218899965
vertex -0.4105339944 -0.1342799962 0.3058579862
vertex 0.07643000036 -0.1344339997 0.3153580129

endloop
endfacet
facet normal 1 0 0
outer loop
vertex 0.07643000036 -0.164297998 0.2333869934
vertex 0.07643000036 -0.06047400087 0.1243859977
vertex 0.07643000036 -0.1538529992 0.2456160039

endloop
endfacet
facet normal 0 -0.760392487 0.6494637132
outer loop
vertex 0.07643000036 -0.1538529992 0.2456160039
vertex -0.4105339944 -0.1538529992 0.2456160039
vertex 0.07643000036 -0.164297998 0.2333869934

endloop
endfacet
facet normal 1 0 0
outer loop
vertex 0.07643000036 -0.2207349986 0.2046310008
vertex 0.07643000036 -0.06047400087 0.1243859977
vertex 0.07643000036 -0.2050970048 0.2083840072

endloop
endfacet
facet normal 0 -0.2333663553 0.972388804
outer loop
vertex 0.07643000036 -0.2050970048 0.2083840072
vertex -0.4105339944 -0.2050970048 0.2083840072
vertex 0.07643000036 -0.2207349986 0.2046310008

endloop
endfacet
facet normal 0 -0.3827158213 0.9238660932
outer loop
vertex -0.4105339944 -0.1902389973 0.2145390064
vertex -0.4105339944 -0.2050970048 0.2083840072
vertex 0.07643000036 -0.2050970048 0.2083840072

endloop
endfacet
facet normal 1 0 0
outer loop
vertex 0.07643000036 -0.2433959991 0.2032980025
vertex 0.07643000036 -0.06047400087 0.1243859977
vertex 0.07643000036 -0.2207349986 0.2046310008

endloop
endfacet
facet normal 1 0 0
outer loop
vertex 0.07643000036 -0.1902389973 0.2145390064
vertex 0.07643000036 -0.06047400087 0.1243859977
vertex 0.07643000036 -0.1765269935 0.2229419947

endloop
endfacet
facet normal 1 0 0
outer loop
vertex 0.07643000036 -0.1765269935 0.2229419947
vertex 0.07643000036 -0.06047400087 0.1243859977
vertex 0.07643000036 -0.164297998 0.2333869934

endloop
endfacet
facet normal 0 -0.3827158213 0.9238660932
outer loop
vertex 0.07643000036 -0.1902389973 0.2145390064
vertex -0.4105339944 -0.1902389973 0.2145390064
vertex 0.07643000036 -0.2050970048 0.2083840072

endloop
endfacet
facet normal 1 0 0
outer loop
vertex 0.07643000036 -0.2050970048 0.2083840072
vertex 0.07643000036 -0.06047400087 0.1243859977
vertex 0.07643000036 -0.1902389973 0.2145390064

endloop
endfacet
facet normal 0 -0.64946419 0.7603921294
outer loop
vertex -0.4105339944 -0.164297998 0.2333869934
vertex -0.4105339944 -0.1765269935 0.2229419947
vertex 0.07643000036 -0.1765269935 0.2229419947

endloop
endfacet
facet normal 0 -0.5225104094 0.8526328802
outer loop
vertex -0.4105339944 -0.1765269935 0.2229419947
vertex -0.4105339944 -0.1902389973 0.2145390064
vertex 0.07643000036 -0.1902389973 0.2145390064

endloop
endfacet
facet normal 0 -0.5225104094 0.8526328802
outer loop
vertex 0.07643000036 -0.1765269935 0.2229419947
vertex -0.4105339944 -0.1765269935 0.2229419947
vertex 0.07643000036 -0.1902389973 0.2145390064

endloop
endfacet
facet normal 0 -0.64946419 0.7603921294
outer loop
vertex 0.07643000036 -0.164297998 0.2333869934
vertex -0.4105339944 -0.164297998 0.2333869934
vertex 0.07643000036 -0.1765269935 0.2229419947

endloop
endfacet
facet normal 0 -0.760392487 0.6494637132
outer loop
vertex -0.4105339944 -0.1538529992 0.2456160039
vertex -0.4105339944 -0.164297998 0.2333869934
vertex 0.07643000036 -0.164297998 0.2333869934

endloop
endfacet
facet normal 1 0 0
outer loop
vertex 0.07643000036 -0.145449996 0.2593289912
vertex 0.07643000036 -0.06047400087 0.1243859977
vertex 0.07643000036 -0.1392959952 0.2741859853

endloop
endfacet
facet normal 1 0 0
outer loop
vertex 0.07643000036 -0.06047400087 0.1243859977
vertex 0.07643000036 -0.06047400087 0.4884580076
vertex 0.07643000036 -0.1392959952 0.2741859853

endloop
endfacet
facet normal 1 0 0
outer loop
vertex 0.07643000036 -0.1392959952 0.2741859853
vertex 0.07643000036 -0.06047400087 0.4884580076
vertex 0.07643000036 -0.1355410069 0.2898240089

endloop
endfacet
facet normal 0 -0.9723610282 0.23348248
outer loop
vertex 0.07643000036 -0.1355410069 0.2898240089
vertex -0.4105339944 -0.1355410069 0.2898240089
vertex 0.07643000036 -0.1392959952 0.2741859853

endloop
endfacet
facet normal 1 0 0
outer loop
vertex 0.07643000036 -0.1538529992 0.2456160039
vertex 0.07643000036 -0.06047400087 0.1243859977
vertex 0.07643000036 -0.145449996 0.2593289912

endloop
endfacet
facet normal 0 -0.9238788486 0.3826851547
outer loop
vertex -0.4105339944 -0.1392959952 0.2741859853
vertex -0.4105339944 -0.145449996 0.2593289912
vertex 0.07643000036 -0.145449996 0.2593289912

endloop
endfacet
facet normal 0 -0.8526492119 0.5224838257
outer loop
vertex -0.4105339944 -0.145449996 0.2593289912
vertex -0.4105339944 -0.1538529992 0.2456160039
vertex 0.07643000036 -0.1538529992 0.2456160039

endloop
endfacet
facet normal 0 -0.8526492119 0.5224838257
outer loop
vertex 0.07643000036 -0.145449996 0.2593289912
vertex -0.4105339944 -0.145449996 0.2593289912
vertex 0.07643000036 -0.1538529992 0.2456160039

endloop
endfacet
facet normal 0 -0.9238788486 0.3826851547
outer loop
vertex 0.07643000036 -0.1392959952 0.2741859853
vertex -0.4105339944 -0.1392959952 0.2741859853
vertex 0.07643000036 -0.145449996 0.2593289912

endloop
endfacet
facet normal 0 -0.9723610282 0.23348248
outer loop
vertex -0.4105339944 -0.1355410069 0.2898240089
vertex -0.4105339944 -0.1392959952 0.2741859853
vertex 0.07643000036 -0.1392959952 0.2741859853

endloop
endfacet
facet normal -1 0 0
outer loop
vertex -0.4105339944 -0.1902389973 0.2145390064
vertex -0.4105339944 -0.06047400087 0.1243859977
vertex -0.4105339944 -0.2050970048 0.2083840072

endloop
endfacet
facet normal -1 0 0
outer loop
vertex -0.4105339944 -0.1765269935 0.2229419947
vertex -0.4105339944 -0.06047400087 0.1243859977
vertex -0.4105339944 -0.1902389973 0.2145390064

endloop
endfacet
facet normal -1 0 0
outer loop
vertex -0.4105339944 -0.164297998 0.2333869934
vertex -0.4105339944 -0.06047400087 0.1243859977
vertex -0.4105339944 -0.1765269935 0.2229419947

endloop
endfacet
facet normal -1 0 -0
outer loop
vertex -0.4105339944 -0.164297998 0.2333869934
vertex -0.4105339944 -0.1538529992 0.2456160039
vertex -0.4105339944 -0.06047400087 0.1243859977

endloop
endfacet
facet normal -1 0 -0
outer loop
vertex -0.4105339944 -0.1538529992 0.2456160039
vertex -0.4105339944 -0.145449996 0.2593289912
vertex -0.4105339944 -0.06047400087 0.1243859977

endloop
endfacet
facet normal -1 0 -0
outer loop
vertex -0.4105339944 -0.145449996 0.2593289912
vertex -0.4105339944 -0.1392959952 0.2741859853
vertex -0.4105339944 -0.06047400087 0.1243859977

endloop
endfacet
facet normal -1 0 -0
outer loop
vertex -0.4105339944 -0.1392959952 0.2741859853
vertex -0.4105339944 -0.1355410069 0.2898240089
vertex -0.4105339944 -0.06047400087 0.1243859977

endloop
endfacet
facet normal 1 0 -0
outer loop
vertex 0.07643000036 -0.2462670058 0.4081909955
vertex 0.07643000036 -0.2141750008 0.4061169922
vertex 0.07643000036 -0.06047400087 0.4884580076

endloop
endfacet
facet normal -0.002516039647 -0.06449204683 -0.9979150891
outer loop
vertex 0.07643000036 -0.2462670058 0.4081909955
vertex -0.4105339944 -0.2272689939 0.4081909955
vertex 0.07643000036 -0.2141750008 0.4061169922

endloop
endfacet
facet normal 0.002514894586 0.064462699 -0.9979169369
outer loop
vertex -0.4105339944 -0.2593599856 0.4061180055
vertex -0.4105339944 -0.2272689939 0.4081909955
vertex 0.07643000036 -0.2462670058 0.4081909955

endloop
endfacet
facet normal -1 0 0
outer loop
vertex -0.4105339944 -0.2272689939 0.4081909955
vertex -0.4105339944 -0.2593599856 0.4061180055
vertex -0.4105339944 -0.4114089906 0.4884580076

endloop
endfacet
facet normal 1 0 -0
outer loop
vertex 0.07643000036 -0.1538529992 0.366099
vertex 0.07643000036 -0.142377004 0.3465119898
vertex 0.07643000036 -0.06047400087 0.4884580076

endloop
endfacet
facet normal 0 -0.862814188 -0.5055212975
outer loop
vertex 0.07643000036 -0.1538529992 0.366099
vertex -0.4105339944 -0.1538529992 0.366099
vertex 0.07643000036 -0.142377004 0.3465119898

endloop
endfacet
facet normal 1 0 -0
outer loop
vertex 0.07643000036 -0.142377004 0.3465119898
vertex 0.07643000036 -0.1344339997 0.3153580129
vertex 0.07643000036 -0.06047400087 0.4884580076

endloop
endfacet
facet normal 1 0 -0
outer loop
vertex 0.07643000036 -0.2141750008 0.4061169922
vertex 0.07643000036 -0.1902389973 0.3971759975
vertex 0.07643000036 -0.06047400087 0.4884580076

endloop
endfacet
facet normal 1 0 -0
outer loop
vertex 0.07643000036 -0.1902389973 0.3971759975
vertex 0.07643000036 -0.1711210012 0.3849320114
vertex 0.07643000036 -0.06047400087 0.4884580076

endloop
endfacet
facet normal 1 0 -0
outer loop
vertex 0.07643000036 -0.1711210012 0.3849320114
vertex 0.07643000036 -0.1538529992 0.366099
vertex 0.07643000036 -0.06047400087 0.4884580076

endloop
endfacet
facet normal 0 -0.3826628625 -0.9238880277
outer loop
vertex -0.4105339944 -0.2050970048 0.4033299983
vertex -0.4105339944 -0.1902389973 0.3971759975
vertex 0.07643000036 -0.1902389973 0.3971759975

endloop
endfacet
facet normal 0 -0.5393183231 -0.8421020508
outer loop
vertex 0.07643000036 -0.1902389973 0.3971759975
vertex -0.4105339944 -0.1902389973 0.3971759975
vertex 0.07643000036 -0.1711210012 0.3849320114

endloop
endfacet
facet normal -0.001161879394 -0.3499217927 -0.9367781878
outer loop
vertex 0.07643000036 -0.2141750008 0.4061169922
vertex -0.4105339944 -0.2050970048 0.4033299983
vertex 0.07643000036 -0.1902389973 0.3971759975

endloop
endfacet
facet normal 0.001598156872 -0.2141537815 -0.9767987132
outer loop
vertex -0.4105339944 -0.2272689939 0.4081909955
vertex -0.4105339944 -0.2050970048 0.4033299983
vertex 0.07643000036 -0.2141750008 0.4061169922

endloop
endfacet
facet normal -1 0 0
outer loop
vertex -0.4105339944 -0.2050970048 0.4033299983
vertex -0.4105339944 -0.2272689939 0.4081909955
vertex -0.4105339944 -0.4114089906 0.4884580076

endloop
endfacet
facet normal -0.0009214142337 -0.9723604918 -0.2334827781
outer loop
vertex -0.4105339944 -0.1392959952 0.3375279903
vertex -0.4105339944 -0.1355410069 0.3218899965
vertex 0.07643000036 -0.1344339997 0.3153580129

endloop
endfacet
facet normal -0.001572904992 -0.9689999223 -0.2470558137
outer loop
vertex 0.07643000036 -0.142377004 0.3465119898
vertex -0.4105339944 -0.1392959952 0.3375279903
vertex 0.07643000036 -0.1344339997 0.3153580129

endloop
endfacet
facet normal 0.001214330783 -0.923887372 -0.3826625943
outer loop
vertex -0.4105339944 -0.145449996 0.3523859978
vertex -0.4105339944 -0.1392959952 0.3375279903
vertex 0.07643000036 -0.142377004 0.3465119898

endloop
endfacet
facet normal -0.0009218063788 -0.8526490331 -0.5224831104
outer loop
vertex -0.4105339944 -0.1538529992 0.366099
vertex -0.4105339944 -0.145449996 0.3523859978
vertex 0.07643000036 -0.142377004 0.3465119898

endloop
endfacet
facet normal 0 -0.7603663206 -0.6494944096
outer loop
vertex -0.4105339944 -0.164297998 0.3783270121
vertex -0.4105339944 -0.1538529992 0.366099
vertex 0.07643000036 -0.1538529992 0.366099

endloop
endfacet
facet normal 0.001213832875 -0.6494637132 -0.760391593
outer loop
vertex -0.4105339944 -0.1765269935 0.3887720108
vertex -0.4105339944 -0.164297998 0.3783270121
vertex 0.07643000036 -0.1711210012 0.3849320114

endloop
endfacet
facet normal -0.001160739805 -0.7370676994 -0.6758179069
outer loop
vertex 0.07643000036 -0.1711210012 0.3849320114
vertex -0.4105339944 -0.164297998 0.3783270121
vertex 0.07643000036 -0.1538529992 0.366099

endloop
endfacet
facet normal -0.0009221881046 -0.5225552917 -0.8526049256
outer loop
vertex -0.4105339944 -0.1902389973 0.3971759975
vertex -0.4105339944 -0.1765269935 0.3887720108
vertex 0.07643000036 -0.1711210012 0.3849320114

endloop
endfacet
facet normal 0 0 1
outer loop
vertex -0.4105339944 -0.06047400087 0.4884580076
vertex -0.1670529991 -0.06047400087 0.4884580076
vertex -0.4105339944 0.7056729794 0.4884580076

endloop
endfacet
facet normal -1 -0 0
outer loop
vertex -0.4105339944 -0.06047400087 0.4884580076
vertex -0.4105339944 0.7056729794 0.4884580076
vertex -0.4105339944 -0.1355410069 0.2898240089

endloop
endfacet
facet normal 0 0 1
outer loop
vertex -0.1670529991 -0.06047400087 0.4884580076
vertex -0.1670529991 0.7056729794 0.4884580076
vertex -0.4105339944 0.7056729794 0.4884580076

endloop
endfacet
facet normal -1 0 0
outer loop
vertex -0.4105339944 -0.06047400087 0.1243859977
vertex -0.4105339944 -0.1355410069 0.2898240089
vertex -0.4105339944 0.7056729794 0.4884580076

endloop
endfacet
facet normal -1 0 -0
outer loop
vertex -0.4105339944 -0.1355410069 0.2898240089
vertex -0.4105339944 -0.1342799962 0.3058579862
vertex -0.4105339944 -0.06047400087 0.4884580076

endloop
endfacet
facet normal -1 0 0
outer loop
vertex -0.4105339944 -0.1342799962 0.3058579862
vertex -0.4105339944 -0.1355410069 0.3218899965
vertex -0.4105339944 -0.06047400087 0.4884580076

endloop
endfacet
facet normal -1 0 0
outer loop
vertex -0.4105339944 -0.1355410069 0.3218899965
vertex -0.4105339944 -0.1392959952 0.3375279903
vertex -0.4105339944 -0.06047400087 0.4884580076

endloop
endfacet
facet normal -1 0 0
outer loop
vertex -0.4105339944 -0.1392959952 0.3375279903
vertex -0.4105339944 -0.145449996 0.3523859978
vertex -0.4105339944 -0.06047400087 0.4884580076

endloop
endfacet
facet normal -1 0 0
outer loop
vertex -0.4105339944 -0.145449996 0.3523859978
vertex -0.4105339944 -0.1538529992 0.366099
vertex -0.4105339944 -0.06047400087 0.4884580076

endloop
endfacet
facet normal -1 0 0
outer loop
vertex -0.4105339944 -0.1538529992 0.366099
vertex -0.4105339944 -0.164297998 0.3783270121
vertex -0.4105339944 -0.06047400087 0.4884580076

endloop
endfacet
facet normal -1 0 0
outer loop
vertex -0.4105339944 -0.164297998 0.3783270121
vertex -0.4105339944 -0.1765269935 0.3887720108
vertex -0.4105339944 -0.06047400087 0.4884580076

endloop
endfacet
facet normal -1 0 0
outer loop
vertex -0.4105339944 -0.1765269935 0.3887720108
vertex -0.4105339944 -0.1902389973 0.3971759975
vertex -0.4105339944 -0.06047400087 0.4884580076

endloop
endfacet
facet normal -1 0 0
outer loop
vertex -0.4105339944 -0.1902389973 0.3971759975
vertex -0.4105339944 -0.2050970048 0.4033299983
vertex -0.4105339944 -0.06047400087 0.4884580076

endloop
endfacet
facet normal -1 0 0
outer loop
vertex -0.4105339944 -0.06047400087 0.4884580076
vertex -0.4105339944 -0.2050970048 0.4033299983
vertex -0.4105339944 -0.4114089906 0.4884580076

endloop
endfacet
facet normal 0.9291313887 -0.003755241632 -0.369730711
outer loop
vertex 0.3996399939 0.7056729794 -0.3657509983
vertex 0.4197340012 -0.4114089906 -0.3039090037
vertex 0.3790259957 -0.4114089906 -0.4062080085

endloop
endfacet
facet normal 0 -1 0
outer loop
vertex 0.3790259957 -0.4114089906 -0.4062080085
vertex 0.4197340012 -0.4114089906 -0.3039090037
vertex 0.287797004 -0.4114089906 -0.3520480096

endloop
endfacet
facet normal 0.9690049291 0.00375571195 -0.247012645
outer loop
vertex 0.3996399939 0.7056729794 -0.3657509983
vertex 0.4268380105 0.7056729794 -0.2590560019
vertex 0.4197340012 -0.4114089906 -0.3039090037

endloop
endfacet
facet normal 0.8337318301 -0.002524233423 0.5521637797
outer loop
vertex 0.3790279925 0.7056729794 -0.04688899964
vertex 0.3408020139 -0.4114089906 0.005723000038
vertex 0.3891159892 -0.4114089906 -0.06722799689

endloop
endfacet
facet normal 0 -1 -0
outer loop
vertex 0.3408020139 -0.4114089906 0.005723000038
vertex 0.282705009 -0.4114089906 0.05736399814
vertex 0.2334470004 -0.4114089906 -0.03741399944

endloop
endfacet
facet normal 0 1 0
outer loop
vertex 0.4197340012 0.7056729794 -0.1491899937
vertex 0.3162339926 0.7056729794 -0.1725099981
vertex 0.3790279925 0.7056729794 -0.04688899964

endloop
endfacet
facet normal 0 1 0
outer loop
vertex 0.3162339926 0.7056729794 -0.1725099981
vertex 0.4268380105 0.7056729794 -0.2590560019
vertex 0.3211959898 0.7056729794 -0.2492569983

endloop
endfacet
facet normal -0 1 0
outer loop
vertex 0.4268380105 0.7056729794 -0.2590560019
vertex 0.3162339926 0.7056729794 -0.1725099981
vertex 0.4197340012 0.7056729794 -0.1491899937

endloop
endfacet
facet normal 0 -1 0
outer loop
vertex 0.3162339926 -0.4114089906 -0.2805869877
vertex 0.287797004 -0.4114089906 -0.3520480096
vertex 0.4197340012 -0.4114089906 -0.3039090037

endloop
endfacet
facet normal -0.997913003 0.002623138484 0.06451903284
outer loop
vertex 0.3162339926 -0.4114089906 -0.2805869877
vertex 0.3211959898 -0.4114089906 -0.2038400024
vertex 0.3211959898 0.7056729794 -0.2492569983

endloop
endfacet
facet normal -0.9979130626 -0.002623138251 -0.06451903284
outer loop
vertex 0.3211959898 0.7056729794 -0.2492569983
vertex 0.3211959898 -0.4114089906 -0.2038400024
vertex 0.3162339926 0.7056729794 -0.1725099981

endloop
endfacet
facet normal 0.9935417771 -0.001070172759 0.1134619713
outer loop
vertex 0.4197340012 0.7056729794 -0.1491899937
vertex 0.4174390137 -0.4114089906 -0.1396300048
vertex 0.427365005 -0.4114089906 -0.2265480012

endloop
endfacet
facet normal 0 -1 -0
outer loop
vertex 0.427365005 -0.4114089906 -0.2265480012
vertex 0.4174390137 -0.4114089906 -0.1396300048
vertex 0.3211959898 -0.4114089906 -0.2038400024

endloop
endfacet
facet normal 0.9291458726 0.001255106297 0.3697111905
outer loop
vertex 0.4197340012 0.7056729794 -0.1491899937
vertex 0.3790279925 0.7056729794 -0.04688899964
vertex 0.4174390137 -0.4114089906 -0.1396300048

endloop
endfacet
facet normal 0.9312770963 0.001777017722 0.364307344
outer loop
vertex 0.3790279925 0.7056729794 -0.04688899964
vertex 0.3891159892 -0.4114089906 -0.06722799689
vertex 0.4174390137 -0.4114089906 -0.1396300048

endloop
endfacet
facet normal 0 -1 0
outer loop
vertex 0.3211959898 -0.4114089906 -0.2038400024
vertex 0.3162339926 -0.4114089906 -0.2805869877
vertex 0.427365005 -0.4114089906 -0.2265480012

endloop
endfacet
facet normal 0 -1 0
outer loop
vertex 0.4197340012 -0.4114089906 -0.3039090037
vertex 0.427365005 -0.4114089906 -0.2265480012
vertex 0.3162339926 -0.4114089906 -0.2805869877

endloop
endfacet
facet normal 0.995167315 -0.00238719536 -0.09816477448
outer loop
vertex 0.4268380105 0.7056729794 -0.2590560019
vertex 0.427365005 -0.4114089906 -0.2265480012
vertex 0.4197340012 -0.4114089906 -0.3039090037

endloop
endfacet
facet normal 0.997913301 0.002348527079 0.06452574581
outer loop
vertex 0.4268380105 0.7056729794 -0.2590560019
vertex 0.4197340012 0.7056729794 -0.1491899937
vertex 0.427365005 -0.4114089906 -0.2265480012

endloop
endfacet
facet normal 0 -1 0
outer loop
vertex 0.2747479975 -0.4114089906 -0.08246299624
vertex 0.3021979928 -0.4114089906 -0.1293140054
vertex 0.3891159892 -0.4114089906 -0.06722799689

endloop
endfacet
facet normal -0.9690075517 0.002623653971 -0.2470172048
outer loop
vertex 0.3211959898 -0.4114089906 -0.2038400024
vertex 0.3021979928 -0.4114089906 -0.1293140054
vertex 0.3162339926 0.7056729794 -0.1725099981

endloop
endfacet
facet normal -0 -1 0
outer loop
vertex 0.3211959898 -0.4114089906 -0.2038400024
vertex 0.4174390137 -0.4114089906 -0.1396300048
vertex 0.3021979928 -0.4114089906 -0.1293140054

endloop
endfacet
facet normal 0 -1 -0
outer loop
vertex 0.4174390137 -0.4114089906 -0.1396300048
vertex 0.3891159892 -0.4114089906 -0.06722799689
vertex 0.3021979928 -0.4114089906 -0.1293140054

endloop
endfacet
facet normal 0 -1 -0
outer loop
vertex 0.3891159892 -0.4114089906 -0.06722799689
vertex 0.3408020139 -0.4114089906 0.005723000038
vertex 0.2747479975 -0.4114089906 -0.08246299624

endloop
endfacet
facet normal 0 -1 0
outer loop
vertex 0.2334470004 -0.4114089906 -0.03741399944
vertex 0.2747479975 -0.4114089906 -0.08246299624
vertex 0.3408020139 -0.4114089906 0.005723000038

endloop
endfacet
facet normal -0.8421446681 0.001241791528 -0.5392502546
outer loop
vertex 0.2948459983 0.7056729794 -0.1152599975
vertex 0.3021979928 -0.4114089906 -0.1293140054
vertex 0.2655650079 0.7056729794 -0.06953199953

endloop
endfacet
facet normal -0.8628128767 -0.001241001301 -0.5055218935
outer loop
vertex 0.3021979928 -0.4114089906 -0.1293140054
vertex 0.2747479975 -0.4114089906 -0.08246299624
vertex 0.2655650079 0.7056729794 -0.06953199953

endloop
endfacet
facet normal -0.7371034622 0.001763223787 -0.6757776737
outer loop
vertex 0.2747479975 -0.4114089906 -0.08246299624
vertex 0.2334470004 -0.4114089906 -0.03741399944
vertex 0.2655650079 0.7056729794 -0.06953199953

endloop
endfacet
facet normal -0 1 0
outer loop
vertex 0.2948459983 0.7056729794 -0.1152599975
vertex 0.2655650079 0.7056729794 -0.06953199953
vertex 0.3790279925 0.7056729794 -0.04688899964

endloop
endfacet
facet normal -0 1 0
outer loop
vertex 0.3162339926 0.7056729794 -0.1725099981
vertex 0.2948459983 0.7056729794 -0.1152599975
vertex 0.3790279925 0.7056729794 -0.04688899964

endloop
endfacet
facet normal -0.9367614388 -0.001762328902 -0.3499641716
outer loop
vertex 0.2948459983 0.7056729794 -0.1152599975
vertex 0.3162339926 0.7056729794 -0.1725099981
vertex 0.3021979928 -0.4114089906 -0.1293140054

endloop
endfacet
facet normal -0.5055380464 0.001241512015 -0.8628033996
outer loop
vertex 0.2205159962 0.7056729794 -0.02823000029
vertex 0.2334470004 -0.4114089906 -0.03741399944
vertex 0.1736669987 0.7056729794 -0.0007800000021

endloop
endfacet
facet normal -0.5392633677 -0.001241041115 -0.8421362638
outer loop
vertex 0.2334470004 -0.4114089906 -0.03741399944
vertex 0.1877190024 -0.4114089906 -0.008132000454
vertex 0.1736669987 0.7056729794 -0.0007800000021

endloop
endfacet
facet normal -0.3499481678 0.001763202716 -0.9367673993
outer loop
vertex 0.1877190024 -0.4114089906 -0.008132000454
vertex 0.1304659992 -0.4114089906 0.01325600035
vertex 0.1736669987 0.7056729794 -0.0007800000021

endloop
endfacet
facet normal -0.2470234483 -0.002622286323 -0.9690060019
outer loop
vertex 0.1736669987 0.7056729794 -0.0007800000021
vertex 0.1304659992 -0.4114089906 0.01325600035
vertex 0.09914299846 0.7056729794 0.01821799949

endloop
endfacet
facet normal -0.6757864356 -0.001762730535 -0.737095356
outer loop
vertex 0.2655650079 0.7056729794 -0.06953199953
vertex 0.2334470004 -0.4114089906 -0.03741399944
vertex 0.2205159962 0.7056729794 -0.02823000029

endloop
endfacet
facet normal -0 -1 0
outer loop
vertex 0.1877190024 -0.4114089906 -0.008132000454
vertex 0.235751003 -0.4114089906 0.08613699675
vertex 0.1848749965 -0.4114089906 0.1072100028

endloop
endfacet
facet normal 0 -1 0
outer loop
vertex 0.235751003 -0.4114089906 0.08613699675
vertex 0.1877190024 -0.4114089906 -0.008132000454
vertex 0.2334470004 -0.4114089906 -0.03741399944

endloop
endfacet
facet normal -0 -1 0
outer loop
vertex 0.2334470004 -0.4114089906 -0.03741399944
vertex 0.282705009 -0.4114089906 0.05736399814
vertex 0.235751003 -0.4114089906 0.08613699675

endloop
endfacet
facet normal 0 -1 -0
outer loop
vertex 0.1848749965 -0.4114089906 0.1072100028
vertex 0.1313280016 -0.4114089906 0.120066002
vertex 0.1304659992 -0.4114089906 0.01325600035

endloop
endfacet
facet normal 0 -1 0
outer loop
vertex 0.1848749965 -0.4114089906 0.1072100028
vertex 0.1304659992 -0.4114089906 0.01325600035
vertex 0.1877190024 -0.4114089906 -0.008132000454

endloop
endfacet
facet normal 0.7827749848 0.002522727009 0.6222997308
outer loop
vertex 0.3790279925 0.7056729794 -0.04688899964
vertex 0.3245790005 0.7056729794 0.0216010008
vertex 0.3408020139 -0.4114089906 0.005723000038

endloop
endfacet
facet normal 0 1 0
outer loop
vertex 0.3790279925 0.7056729794 -0.04688899964
vertex 0.2655650079 0.7056729794 -0.06953199953
vertex 0.3245790005 0.7056729794 0.0216010008

endloop
endfacet
facet normal 0 1 0
outer loop
vertex 0.282705009 0.7056729794 0.05736399814
vertex 0.3245790005 0.7056729794 0.0216010008
vertex 0.2655650079 0.7056729794 -0.06953199953

endloop
endfacet
facet normal -0 1 0
outer loop
vertex 0.2655650079 0.7056729794 -0.06953199953
vertex 0.2205159962 0.7056729794 -0.02823000029
vertex 0.282705009 0.7056729794 0.05736399814

endloop
endfacet
facet normal 0.6494393349 -0.001376766828 0.7604121566
outer loop
vertex 0.3408020139 -0.4114089906 0.005723000038
vertex 0.3245790005 0.7056729794 0.0216010008
vertex 0.282705009 0.7056729794 0.05736399814

endloop
endfacet
facet normal 0.6643581986 0 0.7474142909
outer loop
vertex 0.3408020139 -0.4114089906 0.005723000038
vertex 0.282705009 0.7056729794 0.05736399814
vertex 0.282705009 -0.4114089906 0.05736399814

endloop
endfacet
facet normal -0 1 0
outer loop
vertex 0.2205159962 0.7056729794 -0.02823000029
vertex 0.1736669987 0.7056729794 -0.0007800000021
vertex 0.1848749965 0.7056729794 0.1072100028

endloop
endfacet
facet normal 0.3826752901 0 0.9238829017
outer loop
vertex 0.235751003 -0.4114089906 0.08613699675
vertex 0.235751003 0.7056729794 0.08613699675
vertex 0.1848749965 0.7056729794 0.1072100028

endloop
endfacet
facet normal 0 1 0
outer loop
vertex 0.1848749965 0.7056729794 0.1072100028
vertex 0.235751003 0.7056729794 0.08613699675
vertex 0.2205159962 0.7056729794 -0.02823000029

endloop
endfacet
facet normal 0.5224925876 -0 0.8526438475
outer loop
vertex 0.235751003 0.7056729794 0.08613699675
vertex 0.235751003 -0.4114089906 0.08613699675
vertex 0.282705009 -0.4114089906 0.05736399814

endloop
endfacet
facet normal 0.5224925876 0 0.8526438475
outer loop
vertex 0.282705009 -0.4114089906 0.05736399814
vertex 0.282705009 0.7056729794 0.05736399814
vertex 0.235751003 0.7056729794 0.08613699675

endloop
endfacet
facet normal 0 1 0
outer loop
vertex 0.282705009 0.7056729794 0.05736399814
vertex 0.2205159962 0.7056729794 -0.02823000029
vertex 0.235751003 0.7056729794 0.08613699675

endloop
endfacet
facet normal 0.3826752901 -0 0.9238829017
outer loop
vertex 0.1848749965 0.7056729794 0.1072100028
vertex 0.1848749965 -0.4114089906 0.1072100028
vertex 0.235751003 -0.4114089906 0.08613699675

endloop
endfacet
facet normal 0 1 -0
outer loop
vertex 0.1848749965 0.7056729794 0.1072100028
vertex 0.1736669987 0.7056729794 -0.0007800000021
vertex 0.1313280016 0.7056729794 0.120066002

endloop
endfacet
facet normal -0 1 0
outer loop
vertex 0.1736669987 0.7056729794 -0.0007800000021
vertex 0.09914299846 0.7056729794 0.01821799949
vertex 0.1313280016 0.7056729794 0.120066002

endloop
endfacet
facet normal 0.07844879478 0 0.9969181418
outer loop
vertex 0.1313280016 0.7056729794 0.120066002
vertex 0.07643000036 0.7056729794 0.1243859977
vertex 0.1313280016 -0.4114089906 0.120066002

endloop
endfacet
facet normal 0.2334540039 -0 0.9723678231
outer loop
vertex 0.1313280016 0.7056729794 0.120066002
vertex 0.1313280016 -0.4114089906 0.120066002
vertex 0.1848749965 -0.4114089906 0.1072100028

endloop
endfacet
facet normal 0.2334540039 0 0.9723678231
outer loop
vertex 0.1848749965 0.7056729794 0.1072100028
vertex 0.1313280016 0.7056729794 0.120066002
vertex 0.1848749965 -0.4114089906 0.1072100028

endloop
endfacet
facet normal 0 0 1
outer loop
vertex -0.1670529991 0.7056729794 0.1243859977
vertex -0.1670529991 -0.06047400087 0.1243859977
vertex 0.07643000036 0.7056729794 0.1243859977

endloop
endfacet
facet normal 0 0 1
outer loop
vertex 0.07643000036 -0.06047400087 0.1243859977
vertex 0.07643000036 0.7056729794 0.1243859977
vertex -0.1670529991 -0.06047400087 0.1243859977

endloop
endfacet
facet normal 0.07844880223 -0 0.9969181418
outer loop
vertex 0.07643000036 0.7056729794 0.1243859977
vertex 0.07643000036 -0.06047400087 0.1243859977
vertex 0.1313280016 -0.4114089906 0.120066002

endloop
endfacet
facet normal 0 1 0
outer loop
vertex -0.06765600294 0.7056729794 -0.02823000029
vertex -0.1670529991 0.7056729794 0.1243859977
vertex -0.03485900164 0.7056729794 -0.008132000454

endloop
endfacet
facet normal 0 1 -0
outer loop
vertex -0.06765600294 0.7056729794 -0.02823000029
vertex -0.09690599889 0.7056729794 -0.05321199819
vertex -0.1670529991 0.7056729794 0.1243859977

endloop
endfacet
facet normal 0 1 0
outer loop
vertex 0.03808199987 0.7056729794 0.01556800026
vertex 0.0006789999898 0.7056729794 0.006587999873
vertex 0.1313280016 0.7056729794 0.120066002

endloop
endfacet
facet normal 0 1 0
outer loop
vertex -0.03485900164 0.7056729794 -0.008132000454
vertex -0.1670529991 0.7056729794 0.1243859977
vertex 0.0006789999898 0.7056729794 0.006587999873

endloop
endfacet
facet normal 0 1 0
outer loop
vertex -0.1670529991 0.7056729794 0.1243859977
vertex 0.07643000036 0.7056729794 0.1243859977
vertex 0.0006789999898 0.7056729794 0.006587999873

endloop
endfacet
facet normal 0 1 0
outer loop
vertex 0.1313280016 0.7056729794 0.120066002
vertex 0.0006789999898 0.7056729794 0.006587999873
vertex 0.07643000036 0.7056729794 0.1243859977

endloop
endfacet
facet normal 0 1 0
outer loop
vertex 0.09914299846 0.7056729794 0.01821799949
vertex 0.03808199987 0.7056729794 0.01556800026
vertex 0.1313280016 0.7056729794 0.120066002

endloop
endfacet
facet normal 0.2334534973 0.0009605732048 -0.9723675251
outer loop
vertex 0.03808199987 0.7056729794 0.01556800026
vertex 0.05371600017 -0.4114089906 0.01821799949
vertex 0.0006789999898 0.7056729794 0.006587999873

endloop
endfacet
facet normal 0.04335833341 -0.001763199922 -0.9990580082
outer loop
vertex 0.09914299846 0.7056729794 0.01821799949
vertex 0.05371600017 -0.4114089906 0.01821799949
vertex 0.03808199987 0.7056729794 0.01556800026

endloop
endfacet
facet normal 0 -1 0
outer loop
vertex 0.0006789999898 -0.4114089906 0.006587999873
vertex 0.07643000036 -0.4114089906 0.1243859977
vertex -0.03485900164 -0.4114089906 -0.008132000454

endloop
endfacet
facet normal 0.3826763332 0 -0.923882544
outer loop
vertex 0.0006789999898 -0.4114089906 0.006587999873
vertex -0.03485900164 -0.4114089906 -0.008132000454
vertex -0.03485900164 0.7056729794 -0.008132000454

endloop
endfacet
facet normal 0.5224980712 0 -0.8526405096
outer loop
vertex -0.03485900164 0.7056729794 -0.008132000454
vertex -0.03485900164 -0.4114089906 -0.008132000454
vertex -0.06765600294 0.7056729794 -0.02823000029

endloop
endfacet
facet normal 0.3826763332 0 -0.923882544
outer loop
vertex 0.0006789999898 0.7056729794 0.006587999873
vertex 0.0006789999898 -0.4114089906 0.006587999873
vertex -0.03485900164 0.7056729794 -0.008132000454

endloop
endfacet
facet normal 0.2141917199 0 -0.9767916799
outer loop
vertex 0.05371600017 -0.4114089906 0.01821799949
vertex 0.0006789999898 -0.4114089906 0.006587999873
vertex 0.0006789999898 0.7056729794 0.006587999873

endloop
endfacet
facet normal 0 -1 0
outer loop
vertex 0.07643000036 -0.4114089906 0.1243859977
vertex 0.0006789999898 -0.4114089906 0.006587999873
vertex 0.05371600017 -0.4114089906 0.01821799949

endloop
endfacet
facet normal 0.6494501233 0 -0.7604041696
outer loop
vertex -0.09690599889 -0.4114089906 -0.05321199819
vertex -0.09690599889 0.7056729794 -0.05321199819
vertex -0.06765600294 -0.4114089906 -0.02823000029

endloop
endfacet
facet normal 0.6494501233 0 -0.7604041696
outer loop
vertex -0.06765600294 0.7056729794 -0.02823000029
vertex -0.06765600294 -0.4114089906 -0.02823000029
vertex -0.09690599889 0.7056729794 -0.05321199819

endloop
endfacet
facet normal 0.5224980712 0 -0.8526405096
outer loop
vertex -0.03485900164 -0.4114089906 -0.008132000454
vertex -0.06765600294 -0.4114089906 -0.02823000029
vertex -0.06765600294 0.7056729794 -0.02823000029

endloop
endfacet
facet normal -0 -1 0
outer loop
vertex -0.06765600294 -0.4114089906 -0.02823000029
vertex -0.03485900164 -0.4114089906 -0.008132000454
vertex 0.07643000036 -0.4114089906 0.1243859977

endloop
endfacet
facet normal 0.7604151368 0 -0.6494373083
outer loop
vertex -0.09690599889 -0.4114089906 -0.05321199819
vertex -0.1218879968 -0.4114089906 -0.08246299624
vertex -0.09690599889 0.7056729794 -0.05321199819

endloop
endfacet
facet normal -0 -1 0
outer loop
vertex -0.4105339944 -0.4114089906 -0.5774829984
vertex -0.03485900164 -0.4114089906 -0.4449650049
vertex -0.06765600294 -0.4114089906 -0.4248659909

endloop
endfacet
facet normal 0.7604041696 -0 0.6494501233
outer loop
vertex -0.1218879968 -0.4114089906 -0.3706339896
vertex -0.09690599889 -0.4114089906 -0.3998839855
vertex -0.09690599889 0.7056729794 -0.3998839855

endloop
endfacet
facet normal 0 -1 -0
outer loop
vertex -0.09690599889 -0.4114089906 -0.3998839855
vertex -0.1218879968 -0.4114089906 -0.3706339896
vertex -0.4105339944 -0.4114089906 -0.5774829984

endloop
endfacet
facet normal 0.7604041696 -0 0.6494501233
outer loop
vertex -0.1218879968 0.7056729794 -0.3706339896
vertex -0.1218879968 -0.4114089906 -0.3706339896
vertex -0.09690599889 0.7056729794 -0.3998839855

endloop
endfacet
facet normal -0 -1 0
outer loop
vertex -0.4105339944 -0.4114089906 -0.5774829984
vertex -0.06765600294 -0.4114089906 -0.4248659909
vertex -0.09690599889 -0.4114089906 -0.3998839855

endloop
endfacet
facet normal 0.6494503021 -0 0.76040411
outer loop
vertex -0.09690599889 -0.4114089906 -0.3998839855
vertex -0.06765600294 -0.4114089906 -0.4248659909
vertex -0.06765600294 0.7056729794 -0.4248659909

endloop
endfacet
facet normal 0.6494503021 -0 0.76040411
outer loop
vertex -0.09690599889 0.7056729794 -0.3998839855
vertex -0.09690599889 -0.4114089906 -0.3998839855
vertex -0.06765600294 0.7056729794 -0.4248659909

endloop
endfacet
facet normal -1 -0 -0
outer loop
vertex -0.4105339944 -0.06047400087 0.1243859977
vertex -0.4105339944 0.7056729794 0.1243859977
vertex -0.4105339944 0.7056729794 -0.2265480012

endloop
endfacet
facet normal 0 1 0
outer loop
vertex -0.4105339944 0.7056729794 0.1243859977
vertex -0.09690599889 0.7056729794 -0.05321199819
vertex -0.4105339944 0.7056729794 -0.2265480012

endloop
endfacet
facet normal -1 0 0
outer loop
vertex -0.4105339944 0.7056729794 0.1243859977
vertex -0.4105339944 -0.06047400087 0.1243859977
vertex -0.4105339944 0.7056729794 0.4884580076

endloop
endfacet
facet normal -0 1 0
outer loop
vertex -0.4105339944 0.7056729794 0.1243859977
vertex -0.4105339944 0.7056729794 0.4884580076
vertex -0.1670529991 0.7056729794 0.4884580076

endloop
endfacet
facet normal 0 1 0
outer loop
vertex -0.1670529991 0.7056729794 0.1243859977
vertex -0.4105339944 0.7056729794 0.1243859977
vertex -0.1670529991 0.7056729794 0.4884580076

endloop
endfacet
facet normal 0 1 0
outer loop
vertex -0.1670529991 0.7056729794 0.1243859977
vertex -0.09690599889 0.7056729794 -0.05321199819
vertex -0.4105339944 0.7056729794 0.1243859977

endloop
endfacet
facet normal 0 1 0
outer loop
vertex -0.1218879968 0.7056729794 -0.08246299624
vertex -0.4105339944 0.7056729794 -0.2265480012
vertex -0.09690599889 0.7056729794 -0.05321199819

endloop
endfacet
facet normal 0 1 0
outer loop
vertex -0.4105339944 0.7056729794 -0.2265480012
vertex -0.1218879968 0.7056729794 -0.08246299624
vertex -0.1419869959 0.7056729794 -0.1152599975

endloop
endfacet
facet normal 0 1 0
outer loop
vertex -0.1567060053 0.7056729794 -0.1507979929
vertex -0.4105339944 0.7056729794 -0.2265480012
vertex -0.1419869959 0.7056729794 -0.1152599975

endloop
endfacet
facet normal 0 1 0
outer loop
vertex -0.1656869948 0.7056729794 -0.1882009953
vertex -0.4105339944 0.7056729794 -0.2265480012
vertex -0.1567060053 0.7056729794 -0.1507979929

endloop
endfacet
facet normal 0 1 0
outer loop
vertex -0.1687040031 0.7056729794 -0.2265480012
vertex -0.4105339944 0.7056729794 -0.2265480012
vertex -0.1656869948 0.7056729794 -0.1882009953

endloop
endfacet
facet normal 0 1 0
outer loop
vertex -0.1687040031 0.7056729794 -0.2265480012
vertex -0.1656869948 0.7056729794 -0.2648960054
vertex -0.4105339944 0.7056729794 -0.2265480012

endloop
endfacet
facet normal 0 1 0
outer loop
vertex -0.1656869948 0.7056729794 -0.2648960054
vertex -0.1567060053 0.7056729794 -0.3022989929
vertex -0.4105339944 0.7056729794 -0.2265480012

endloop
endfacet
facet normal 0 1 0
outer loop
vertex -0.1567060053 0.7056729794 -0.3022989929
vertex -0.1419869959 0.7056729794 -0.3378370106
vertex -0.4105339944 0.7056729794 -0.2265480012

endloop
endfacet
facet normal 0 1 0
outer loop
vertex -0.1419869959 0.7056729794 -0.3378370106
vertex -0.1218879968 0.7056729794 -0.3706339896
vertex -0.4105339944 0.7056729794 -0.2265480012

endloop
endfacet
facet normal 0 1 0
outer loop
vertex -0.4105339944 0.7056729794 -0.2265480012
vertex -0.1218879968 0.7056729794 -0.3706339896
vertex -0.4105339944 0.7056729794 -0.5774829984

endloop
endfacet
facet normal -1 0 0
outer loop
vertex -0.4105339944 0.7056729794 -0.5774829984
vertex -0.4105339944 -0.4114089906 -0.5774829984
vertex -0.4105339944 0.7056729794 -0.2265480012

endloop
endfacet
facet normal -1 0 0
outer loop
vertex -0.4105339944 -0.2832979858 0.3971759975
vertex -0.4105339944 -0.3024129868 0.3849340081
vertex -0.4105339944 -0.4114089906 0.4884580076

endloop
endfacet
facet normal -1 0 0
outer loop
vertex -0.4105339944 -0.2593599856 0.4061180055
vertex -0.4105339944 -0.2832979858 0.3971759975
vertex -0.4105339944 -0.4114089906 0.4884580076

endloop
endfacet
facet normal 0 0.3826412261 -0.9238969684
outer loop
vertex 0.07643000036 -0.2832979858 0.3971759975
vertex -0.4105339944 -0.2832979858 0.3971759975
vertex 0.07643000036 -0.2684389949 0.4033299983

endloop
endfacet
facet normal 0 0.5393158197 -0.8421035409
outer loop
vertex -0.4105339944 -0.3024129868 0.3849340081
vertex -0.4105339944 -0.2832979858 0.3971759975
vertex 0.07643000036 -0.2832979858 0.3971759975

endloop
endfacet
facet normal 0.001160849002 0.3499309719 -0.9367747307
outer loop
vertex -0.4105339944 -0.2832979858 0.3971759975
vertex -0.4105339944 -0.2593599856 0.4061180055
vertex 0.07643000036 -0.2684389949 0.4033299983

endloop
endfacet
facet normal -0.001599743613 0.2141537815 -0.9767987132
outer loop
vertex 0.07643000036 -0.2684389949 0.4033299983
vertex -0.4105339944 -0.2593599856 0.4061180055
vertex 0.07643000036 -0.2462670058 0.4081909955

endloop
endfacet
facet normal 1 0 -0
outer loop
vertex 0.07643000036 -0.2684389949 0.4033299983
vertex 0.07643000036 -0.2462670058 0.4081909955
vertex 0.07643000036 -0.06047400087 0.4884580076

endloop
endfacet
facet normal -1 0 0
outer loop
vertex -0.4105339944 -0.3024129868 0.3849340081
vertex -0.4105339944 -0.3196829855 0.366099
vertex -0.4105339944 -0.4114089906 0.4884580076

endloop
endfacet
facet normal -1 0 0
outer loop
vertex -0.4105339944 -0.3196829855 0.366099
vertex -0.4105339944 -0.3280859888 0.3523859978
vertex -0.4105339944 -0.4114089906 0.4884580076

endloop
endfacet
facet normal 0 0.8526494503 -0.5224833488
outer loop
vertex -0.4105339944 -0.3280859888 0.3523859978
vertex -0.4105339944 -0.3196829855 0.366099
vertex 0.07643000036 -0.3196829855 0.366099

endloop
endfacet
facet normal -1 0 0
outer loop
vertex -0.4105339944 -0.3280859888 0.3523859978
vertex -0.4105339944 -0.3342410028 0.3375279903
vertex -0.4105339944 -0.4114089906 0.4884580076

endloop
endfacet
facet normal 0 0.9238657355 -0.3827166259
outer loop
vertex 0.07643000036 -0.3342410028 0.3375279903
vertex -0.4105339944 -0.3342410028 0.3375279903
vertex 0.07643000036 -0.3280859888 0.3523859978

endloop
endfacet
facet normal 0 0.9238657355 -0.3827166259
outer loop
vertex -0.4105339944 -0.3342410028 0.3375279903
vertex -0.4105339944 -0.3280859888 0.3523859978
vertex 0.07643000036 -0.3280859888 0.3523859978

endloop
endfacet
facet normal 0 0.8526494503 -0.5224833488
outer loop
vertex 0.07643000036 -0.3280859888 0.3523859978
vertex -0.4105339944 -0.3280859888 0.3523859978
vertex 0.07643000036 -0.3196829855 0.366099

endloop
endfacet
facet normal -1 0 0
outer loop
vertex -0.4105339944 -0.3392570019 0.3058579862
vertex -0.4105339944 -0.4114089906 0.4884580076
vertex -0.4105339944 -0.3379949927 0.3218899965

endloop
endfacet
facet normal -1 0 0
outer loop
vertex -0.4105339944 -0.3342410028 0.3375279903
vertex -0.4105339944 -0.3379949927 0.3218899965
vertex -0.4105339944 -0.4114089906 0.4884580076

endloop
endfacet
facet normal 0 0.9723750353 -0.2334242016
outer loop
vertex -0.4105339944 -0.3379949927 0.3218899965
vertex -0.4105339944 -0.3342410028 0.3375279903
vertex 0.07643000036 -0.3342410028 0.3375279903

endloop
endfacet
facet normal -1 0 0
outer loop
vertex -0.4105339944 -0.3379949927 0.2898240089
vertex -0.4105339944 -0.4114089906 0.4884580076
vertex -0.4105339944 -0.3392570019 0.3058579862

endloop
endfacet
facet normal 0 0.9969160557 -0.07847531885
outer loop
vertex 0.07643000036 -0.3392570019 0.3058579862
vertex -0.4105339944 -0.3392570019 0.3058579862
vertex 0.07643000036 -0.3379949927 0.3218899965

endloop
endfacet
facet normal -0 0.9969168305 0.0784657523
outer loop
vertex 0.07643000036 -0.3379949927 0.2898240089
vertex -0.4105339944 -0.3379949927 0.2898240089
vertex 0.07643000036 -0.3392570019 0.3058579862

endloop
endfacet
facet normal -0 0.9969168305 0.0784657523
outer loop
vertex -0.4105339944 -0.3379949927 0.2898240089
vertex -0.4105339944 -0.3392570019 0.3058579862
vertex 0.07643000036 -0.3392570019 0.3058579862

endloop
endfacet
facet normal 0 0.9969160557 -0.07847531885
outer loop
vertex -0.4105339944 -0.3392570019 0.3058579862
vertex -0.4105339944 -0.3379949927 0.3218899965
vertex 0.07643000036 -0.3379949927 0.3218899965

endloop
endfacet
facet normal 0 0.9723750353 -0.2334242016
outer loop
vertex 0.07643000036 -0.3379949927 0.3218899965
vertex -0.4105339944 -0.3379949927 0.3218899965
vertex 0.07643000036 -0.3342410028 0.3375279903

endloop
endfacet
facet normal 0 0.7603663206 -0.6494944096
outer loop
vertex 0.07643000036 -0.3196829855 0.366099
vertex -0.4105339944 -0.3196829855 0.366099
vertex 0.07643000036 -0.3092379868 0.3783270121

endloop
endfacet
facet normal -0.001213490614 0.6494948864 -0.7603650093
outer loop
vertex 0.07643000036 -0.3092379868 0.3783270121
vertex -0.4105339944 -0.3024129868 0.3849340081
vertex 0.07643000036 -0.2970100045 0.3887720108

endloop
endfacet
facet normal 0.001160897664 0.7370645404 -0.6758214235
outer loop
vertex -0.4105339944 -0.3196829855 0.366099
vertex -0.4105339944 -0.3024129868 0.3849340081
vertex 0.07643000036 -0.3092379868 0.3783270121

endloop
endfacet
facet normal 0.0009219286731 0.522554934 -0.8526051044
outer loop
vertex 0.07643000036 -0.2970100045 0.3887720108
vertex -0.4105339944 -0.3024129868 0.3849340081
vertex 0.07643000036 -0.2832979858 0.3971759975

endloop
endfacet
facet normal -0 -1 -0
outer loop
vertex -0.06765600294 -0.4114089906 -0.02823000029
vertex -0.1670529991 -0.4114089906 0.4884580076
vertex -0.4105339944 -0.4114089906 0.4884580076

endloop
endfacet
facet normal -0 -1 0
outer loop
vertex -0.06765600294 -0.4114089906 -0.02823000029
vertex 0.07643000036 -0.4114089906 0.1243859977
vertex -0.1670529991 -0.4114089906 0.4884580076

endloop
endfacet
facet normal 0 0 1
outer loop
vertex -0.1670529991 -0.4114089906 0.4884580076
vertex 0.07643000036 -0.4114089906 0.4884580076
vertex -0.1670529991 -0.06047400087 0.4884580076

endloop
endfacet
facet normal -0 -1 -0
outer loop
vertex 0.07643000036 -0.4114089906 0.1243859977
vertex 0.07643000036 -0.4114089906 0.4884580076
vertex -0.1670529991 -0.4114089906 0.4884580076

endloop
endfacet
facet normal 0 0 1
outer loop
vertex -0.1670529991 -0.4114089906 0.4884580076
vertex -0.1670529991 -0.06047400087 0.4884580076
vertex -0.4105339944 -0.06047400087 0.4884580076

endloop
endfacet
facet normal 0 0 1
outer loop
vertex -0.4105339944 -0.4114089906 0.4884580076
vertex -0.1670529991 -0.4114089906 0.4884580076
vertex -0.4105339944 -0.06047400087 0.4884580076

endloop
endfacet
facet normal 1 0 0
outer loop
vertex 0.07643000036 -0.4114089906 0.1243859977
vertex 0.07643000036 -0.3342410028 0.2741859853
vertex 0.07643000036 -0.4114089906 0.4884580076

endloop
endfacet
facet normal 1 0 0
outer loop
vertex 0.07643000036 -0.3342410028 0.2741859853
vertex 0.07643000036 -0.3379949927 0.2898240089
vertex 0.07643000036 -0.4114089906 0.4884580076

endloop
endfacet
facet normal 1 0 0
outer loop
vertex 0.07643000036 -0.3379949927 0.2898240089
vertex 0.07643000036 -0.3392570019 0.3058579862
vertex 0.07643000036 -0.4114089906 0.4884580076

endloop
endfacet
facet normal 1 0 0
outer loop
vertex 0.07643000036 -0.3392570019 0.3058579862
vertex 0.07643000036 -0.3379949927 0.3218899965
vertex 0.07643000036 -0.4114089906 0.4884580076

endloop
endfacet
facet normal 1 0 0
outer loop
vertex 0.07643000036 -0.3379949927 0.3218899965
vertex 0.07643000036 -0.3342410028 0.3375279903
vertex 0.07643000036 -0.4114089906 0.4884580076

endloop
endfacet
facet normal 1 0 0
outer loop
vertex 0.07643000036 -0.3342410028 0.3375279903
vertex 0.07643000036 -0.3280859888 0.3523859978
vertex 0.07643000036 -0.4114089906 0.4884580076

endloop
endfacet
facet normal 1 0 0
outer loop
vertex 0.07643000036 -0.3280859888 0.3523859978
vertex 0.07643000036 -0.3196829855 0.366099
vertex 0.07643000036 -0.4114089906 0.4884580076

endloop
endfacet
facet normal 1 0 0
outer loop
vertex 0.07643000036 -0.3196829855 0.366099
vertex 0.07643000036 -0.3092379868 0.3783270121
vertex 0.07643000036 -0.4114089906 0.4884580076

endloop
endfacet
facet normal 1 0 0
outer loop
vertex 0.07643000036 -0.3092379868 0.3783270121
vertex 0.07643000036 -0.2970100045 0.3887720108
vertex 0.07643000036 -0.4114089906 0.4884580076

endloop
endfacet
facet normal 1 0 0
outer loop
vertex 0.07643000036 -0.2970100045 0.3887720108
vertex 0.07643000036 -0.2832979858 0.3971759975
vertex 0.07643000036 -0.4114089906 0.4884580076

endloop
endfacet
facet normal 1 0 0
outer loop
vertex 0.07643000036 -0.2832979858 0.3971759975
vertex 0.07643000036 -0.2684389949 0.4033299983
vertex 0.07643000036 -0.4114089906 0.4884580076

endloop
endfacet
facet normal 1 0 -0
outer loop
vertex 0.07643000036 -0.4114089906 0.4884580076
vertex 0.07643000036 -0.2684389949 0.4033299983
vertex 0.07643000036 -0.06047400087 0.4884580076

endloop
endfacet
facet normal 0 0 1
outer loop
vertex 0.07643000036 -0.4114089906 0.4884580076
vertex 0.07643000036 -0.06047400087 0.4884580076
vertex -0.1670529991 -0.06047400087 0.4884580076

endloop
endfacet
facet normal -0 -1 0
outer loop
vertex 0.3245790005 -0.4114089906 -0.4746969938
vertex 0.3790259957 -0.4114089906 -0.4062080085
vertex 0.287797004 -0.4114089906 -0.3520480096

endloop
endfacet
facet normal 0 -1 0
outer loop
vertex 0.287797004 -0.4114089906 -0.3520480096
vertex 0.238665998 -0.4114089906 -0.4112240076
vertex 0.3245790005 -0.4114089906 -0.4746969938

endloop
endfacet
facet normal 0 1 0
outer loop
vertex 0.2747479975 0.7056729794 -0.3706339896
vertex 0.3021979928 0.7056729794 -0.3237839937
vertex 0.3996399939 0.7056729794 -0.3657509983

endloop
endfacet
facet normal -0.9690083861 -0.002623560373 0.2470141053
outer loop
vertex 0.3021979928 0.7056729794 -0.3237839937
vertex 0.3162339926 -0.4114089906 -0.2805869877
vertex 0.3211959898 0.7056729794 -0.2492569983

endloop
endfacet
facet normal 0 1 0
outer loop
vertex 0.3211959898 0.7056729794 -0.2492569983
vertex 0.4268380105 0.7056729794 -0.2590560019
vertex 0.3021979928 0.7056729794 -0.3237839937

endloop
endfacet
facet normal -0 1 0
outer loop
vertex 0.3996399939 0.7056729794 -0.3657509983
vertex 0.3021979928 0.7056729794 -0.3237839937
vertex 0.4268380105 0.7056729794 -0.2590560019

endloop
endfacet
facet normal -0.7370957136 -0.0007469049888 0.6757878661
outer loop
vertex 0.2334450036 0.7056729794 -0.4156840146
vertex 0.238665998 -0.4114089906 -0.4112240076
vertex 0.2747479975 0.7056729794 -0.3706339896

endloop
endfacet
facet normal -0.8628076315 -0.001667753211 0.5055297017
outer loop
vertex 0.2747479975 0.7056729794 -0.3706339896
vertex 0.287797004 -0.4114089906 -0.3520480096
vertex 0.3021979928 0.7056729794 -0.3237839937

endloop
endfacet
facet normal -0.929132998 0.002623082371 0.369736433
outer loop
vertex 0.287797004 -0.4114089906 -0.3520480096
vertex 0.3162339926 -0.4114089906 -0.2805869877
vertex 0.3021979928 0.7056729794 -0.3237839937

endloop
endfacet
facet normal -0.7693848014 0.001640622271 0.6387834549
outer loop
vertex 0.238665998 -0.4114089906 -0.4112240076
vertex 0.287797004 -0.4114089906 -0.3520480096
vertex 0.2747479975 0.7056729794 -0.3706339896

endloop
endfacet
facet normal 0.76042068 0 -0.649430871
outer loop
vertex 0.3245790005 -0.4114089906 -0.4746969938
vertex 0.3245790005 0.7056729794 -0.4746969938
vertex 0.360341996 0.7056729794 -0.4328219891

endloop
endfacet
facet normal 0 1 -0
outer loop
vertex 0.360341996 0.7056729794 -0.4328219891
vertex 0.3245790005 0.7056729794 -0.4746969938
vertex 0.2334450036 0.7056729794 -0.4156840146

endloop
endfacet
facet normal 0 1 0
outer loop
vertex 0.2334450036 0.7056729794 -0.4156840146
vertex 0.2747479975 0.7056729794 -0.3706339896
vertex 0.360341996 0.7056729794 -0.4328219891

endloop
endfacet
facet normal -0 1 0
outer loop
vertex 0.360341996 0.7056729794 -0.4328219891
vertex 0.2747479975 0.7056729794 -0.3706339896
vertex 0.3996399939 0.7056729794 -0.3657509983

endloop
endfacet
facet normal 0.8628047705 0.00238696672 -0.5055314898
outer loop
vertex 0.360341996 0.7056729794 -0.4328219891
vertex 0.3996399939 0.7056729794 -0.3657509983
vertex 0.3790259957 -0.4114089906 -0.4062080085

endloop
endfacet
facet normal 0.7827829123 -0.001733233337 -0.6222923994
outer loop
vertex 0.360341996 0.7056729794 -0.4328219891
vertex 0.3790259957 -0.4114089906 -0.4062080085
vertex 0.3245790005 -0.4114089906 -0.4746969938

endloop
endfacet
facet normal 0 1 0
outer loop
vertex 0.2827039957 0.7056729794 -0.5104600191
vertex 0.2334450036 0.7056729794 -0.4156840146
vertex 0.3245790005 0.7056729794 -0.4746969938

endloop
endfacet
facet normal 0.3826970458 0 -0.9238739014
outer loop
vertex 0.1848749965 -0.4114089906 -0.5603070259
vertex 0.1848749965 0.7056729794 -0.5603070259
vertex 0.2357500046 0.7056729794 -0.5392330289

endloop
endfacet
facet normal 0 1 0
outer loop
vertex 0.187718004 0.7056729794 -0.4449650049
vertex 0.2334450036 0.7056729794 -0.4156840146
vertex 0.2827039957 0.7056729794 -0.5104600191

endloop
endfacet
facet normal 0 1 -0
outer loop
vertex 0.2827039957 0.7056729794 -0.5104600191
vertex 0.2357500046 0.7056729794 -0.5392330289
vertex 0.187718004 0.7056729794 -0.4449650049

endloop
endfacet
facet normal 0 1 0
outer loop
vertex 0.1848749965 0.7056729794 -0.5603070259
vertex 0.187718004 0.7056729794 -0.4449650049
vertex 0.2357500046 0.7056729794 -0.5392330289

endloop
endfacet
facet normal -0 -1 0
outer loop
vertex -0.4105339944 -0.4114089906 -0.5774829984
vertex 0.03808199987 -0.4114089906 -0.4686650038
vertex 0.0006789999898 -0.4114089906 -0.4596849978

endloop
endfacet
facet normal -0 -1 0
outer loop
vertex -0.4105339944 -0.4114089906 -0.5774829984
vertex 0.0006789999898 -0.4114089906 -0.4596849978
vertex -0.03485900164 -0.4114089906 -0.4449650049

endloop
endfacet
facet normal 0.3826760948 -0 0.923882544
outer loop
vertex -0.03485900164 0.7056729794 -0.4449650049
vertex -0.03485900164 -0.4114089906 -0.4449650049
vertex 0.0006789999898 0.7056729794 -0.4596849978

endloop
endfacet
facet normal 0 1 0
outer loop
vertex -0.03485900164 0.7056729794 -0.4449650049
vertex 0.0006789999898 0.7056729794 -0.4596849978
vertex -0.4105339944 0.7056729794 -0.5774829984

endloop
endfacet
facet normal 0.3826760948 -0 0.923882544
outer loop
vertex -0.03485900164 -0.4114089906 -0.4449650049
vertex 0.0006789999898 -0.4114089906 -0.4596849978
vertex 0.0006789999898 0.7056729794 -0.4596849978

endloop
endfacet
facet normal 0 1 0
outer loop
vertex -0.06765600294 0.7056729794 -0.4248659909
vertex -0.03485900164 0.7056729794 -0.4449650049
vertex -0.4105339944 0.7056729794 -0.5774829984

endloop
endfacet
facet normal 0.5225171447 -0 0.8526287675
outer loop
vertex -0.06765600294 0.7056729794 -0.4248659909
vertex -0.06765600294 -0.4114089906 -0.4248659909
vertex -0.03485900164 0.7056729794 -0.4449650049

endloop
endfacet
facet normal 0.5225171447 -0 0.8526287675
outer loop
vertex -0.06765600294 -0.4114089906 -0.4248659909
vertex -0.03485900164 -0.4114089906 -0.4449650049
vertex -0.03485900164 0.7056729794 -0.4449650049

endloop
endfacet
facet normal 0.07843210548 -0 0.9969194531
outer loop
vertex 0.03808199987 0.7056729794 -0.4686650038
vertex 0.03808199987 -0.4114089906 -0.4686650038
vertex 0.07643000036 0.7056729794 -0.4716820121

endloop
endfacet
facet normal 0.2334537357 -0 0.9723678827
outer loop
vertex 0.0006789999898 0.7056729794 -0.4596849978
vertex 0.0006789999898 -0.4114089906 -0.4596849978
vertex 0.03808199987 0.7056729794 -0.4686650038

endloop
endfacet
facet normal 0.2334537357 -0 0.9723678827
outer loop
vertex 0.0006789999898 -0.4114089906 -0.4596849978
vertex 0.03808199987 -0.4114089906 -0.4686650038
vertex 0.03808199987 0.7056729794 -0.4686650038

endloop
endfacet
facet normal 0 1 0
outer loop
vertex 0.1313280016 0.7056729794 -0.5731620193
vertex 0.07643000036 0.7056729794 -0.5774829984
vertex 0.07643000036 0.7056729794 -0.4716820121

endloop
endfacet
facet normal -0 0 -1
outer loop
vertex -0.4105339944 0.7056729794 -0.5774829984
vertex 0.07643000036 0.7056729794 -0.5774829984
vertex -0.4105339944 -0.4114089906 -0.5774829984

endloop
endfacet
facet normal 0 1 0
outer loop
vertex 0.07643000036 0.7056729794 -0.5774829984
vertex -0.4105339944 0.7056729794 -0.5774829984
vertex 0.0006789999898 0.7056729794 -0.4596849978

endloop
endfacet
facet normal 0 1 0
outer loop
vertex 0.03808199987 0.7056729794 -0.4686650038
vertex 0.07643000036 0.7056729794 -0.5774829984
vertex 0.0006789999898 0.7056729794 -0.4596849978

endloop
endfacet
facet normal 0 1 -0
outer loop
vertex 0.07643000036 0.7056729794 -0.4716820121
vertex 0.07643000036 0.7056729794 -0.5774829984
vertex 0.03808199987 0.7056729794 -0.4686650038

endloop
endfacet
facet normal 0 1 0
outer loop
vertex 0.07643000036 0.7056729794 -0.4716820121
vertex 0.1147769988 0.7056729794 -0.4686650038
vertex 0.1313280016 0.7056729794 -0.5731620193

endloop
endfacet
facet normal 0 1 0
outer loop
vertex 0.1147769988 0.7056729794 -0.4686650038
vertex 0.1521800011 0.7056729794 -0.4596849978
vertex 0.1313280016 0.7056729794 -0.5731620193

endloop
endfacet
facet normal 0 1 0
outer loop
vertex 0.1521800011 0.7056729794 -0.4596849978
vertex 0.187718004 0.7056729794 -0.4449650049
vertex 0.1313280016 0.7056729794 -0.5731620193

endloop
endfacet
facet normal 0 1 0
outer loop
vertex 0.1313280016 0.7056729794 -0.5731620193
vertex 0.187718004 0.7056729794 -0.4449650049
vertex 0.1848749965 0.7056729794 -0.5603070259

endloop
endfacet
facet normal 0.9723621607 0 -0.2334779203
outer loop
vertex -0.1567060053 -0.4114089906 -0.1507979929
vertex -0.1656869948 -0.4114089906 -0.1882009953
vertex -0.1656869948 0.7056729794 -0.1882009953

endloop
endfacet
facet normal 0.9723621607 0 -0.2334779203
outer loop
vertex -0.1567060053 0.7056729794 -0.1507979929
vertex -0.1567060053 -0.4114089906 -0.1507979929
vertex -0.1656869948 0.7056729794 -0.1882009953

endloop
endfacet
facet normal 0.9238915443 0 -0.3826543391
outer loop
vertex -0.1419869959 -0.4114089906 -0.1152599975
vertex -0.1567060053 -0.4114089906 -0.1507979929
vertex -0.1567060053 0.7056729794 -0.1507979929

endloop
endfacet
facet normal 0.9969193339 0 -0.07843412459
outer loop
vertex -0.1656869948 -0.4114089906 -0.1882009953
vertex -0.1687040031 -0.4114089906 -0.2265480012
vertex -0.1687040031 0.7056729794 -0.2265480012

endloop
endfacet
facet normal 0.9969193339 0 -0.07843412459
outer loop
vertex -0.1656869948 0.7056729794 -0.1882009953
vertex -0.1656869948 -0.4114089906 -0.1882009953
vertex -0.1687040031 0.7056729794 -0.2265480012

endloop
endfacet
facet normal 0.9238916636 -0 0.3826541305
outer loop
vertex -0.1567060053 -0.4114089906 -0.3022989929
vertex -0.1419869959 -0.4114089906 -0.3378370106
vertex -0.1419869959 0.7056729794 -0.3378370106

endloop
endfacet
facet normal 0.9238916636 -0 0.3826541305
outer loop
vertex -0.1567060053 0.7056729794 -0.3022989929
vertex -0.1567060053 -0.4114089906 -0.3022989929
vertex -0.1419869959 0.7056729794 -0.3378370106

endloop
endfacet
facet normal 0.9723621607 -0 0.2334779948
outer loop
vertex -0.1656869948 -0.4114089906 -0.2648960054
vertex -0.1567060053 -0.4114089906 -0.3022989929
vertex -0.1567060053 0.7056729794 -0.3022989929

endloop
endfacet
facet normal 0.8526288271 -0 0.5225172043
outer loop
vertex -0.1419869959 -0.4114089906 -0.3378370106
vertex -0.1218879968 -0.4114089906 -0.3706339896
vertex -0.1218879968 0.7056729794 -0.3706339896

endloop
endfacet
facet normal 0.8526288271 -0 0.5225172043
outer loop
vertex -0.1419869959 0.7056729794 -0.3378370106
vertex -0.1419869959 -0.4114089906 -0.3378370106
vertex -0.1218879968 0.7056729794 -0.3706339896

endloop
endfacet
facet normal 1 0 0
outer loop
vertex 0.07643000036 -0.2832979858 0.2145390064
vertex 0.07643000036 -0.4114089906 0.1243859977
vertex 0.07643000036 -0.2684389949 0.2083840072

endloop
endfacet
facet normal 1 0 0
outer loop
vertex 0.07643000036 -0.4114089906 0.1243859977
vertex 0.07643000036 -0.06047400087 0.1243859977
vertex 0.07643000036 -0.2684389949 0.2083840072

endloop
endfacet
facet normal 1 0 0
outer loop
vertex 0.07643000036 -0.2684389949 0.2083840072
vertex 0.07643000036 -0.06047400087 0.1243859977
vertex 0.07643000036 -0.2433959991 0.2032980025

endloop
endfacet
facet normal 1 0 0
outer loop
vertex 0.07643000036 -0.3024129868 0.226778999
vertex 0.07643000036 -0.4114089906 0.1243859977
vertex 0.07643000036 -0.2832979858 0.2145390064

endloop
endfacet
facet normal -0.0009208993288 0.5225097537 0.852632761
outer loop
vertex -0.4105339944 -0.2832979858 0.2145390064
vertex -0.4105339944 -0.2970100045 0.2229419947
vertex 0.07643000036 -0.3024129868 0.226778999

endloop
endfacet
facet normal -0 0.5392534733 0.842143476
outer loop
vertex 0.07643000036 -0.2832979858 0.2145390064
vertex -0.4105339944 -0.2832979858 0.2145390064
vertex 0.07643000036 -0.3024129868 0.226778999

endloop
endfacet
facet normal -0 0.2333663553 0.972388804
outer loop
vertex -0.4105339944 -0.2528010011 0.2046310008
vertex -0.4105339944 -0.2684389949 0.2083840072
vertex 0.07643000036 -0.2684389949 0.2083840072

endloop
endfacet
facet normal -0 0.3826942146 0.9238750339
outer loop
vertex -0.4105339944 -0.2684389949 0.2083840072
vertex -0.4105339944 -0.2832979858 0.2145390064
vertex 0.07643000036 -0.2832979858 0.2145390064

endloop
endfacet
facet normal -0 0.3826942146 0.9238750339
outer loop
vertex 0.07643000036 -0.2684389949 0.2083840072
vertex -0.4105339944 -0.2684389949 0.2083840072
vertex 0.07643000036 -0.2832979858 0.2145390064

endloop
endfacet
facet normal -0.001161331777 0.1990276873 0.9799931645
outer loop
vertex 0.07643000036 -0.2433959991 0.2032980025
vertex -0.4105339944 -0.2528010011 0.2046310008
vertex 0.07643000036 -0.2684389949 0.2083840072

endloop
endfacet
facet normal -0 0.9238565564 0.3827389181
outer loop
vertex -0.4105339944 -0.3280859888 0.2593289912
vertex -0.4105339944 -0.3342410028 0.2741859853
vertex 0.07643000036 -0.3342410028 0.2741859853

endloop
endfacet
facet normal -1 0 0
outer loop
vertex -0.4105339944 -0.3342410028 0.2741859853
vertex -0.4105339944 -0.4114089906 0.4884580076
vertex -0.4105339944 -0.3379949927 0.2898240089

endloop
endfacet
facet normal -0 0.9723751545 0.2334237844
outer loop
vertex -0.4105339944 -0.3342410028 0.2741859853
vertex -0.4105339944 -0.3379949927 0.2898240089
vertex 0.07643000036 -0.3379949927 0.2898240089

endloop
endfacet
facet normal -0 0.9723751545 0.2334237844
outer loop
vertex 0.07643000036 -0.3342410028 0.2741859853
vertex -0.4105339944 -0.3342410028 0.2741859853
vertex 0.07643000036 -0.3379949927 0.2898240089

endloop
endfacet
facet normal 1 0 0
outer loop
vertex 0.07643000036 -0.3024129868 0.226778999
vertex 0.07643000036 -0.3196829855 0.2456160039
vertex 0.07643000036 -0.4114089906 0.1243859977

endloop
endfacet
facet normal 1 0 0
outer loop
vertex 0.07643000036 -0.3196829855 0.2456160039
vertex 0.07643000036 -0.3280859888 0.2593289912
vertex 0.07643000036 -0.4114089906 0.1243859977

endloop
endfacet
facet normal -0 0.9238565564 0.3827389181
outer loop
vertex 0.07643000036 -0.3280859888 0.2593289912
vertex -0.4105339944 -0.3280859888 0.2593289912
vertex 0.07643000036 -0.3342410028 0.2741859853

endloop
endfacet
facet normal 1 0 0
outer loop
vertex 0.07643000036 -0.3280859888 0.2593289912
vertex 0.07643000036 -0.3342410028 0.2741859853
vertex 0.07643000036 -0.4114089906 0.1243859977

endloop
endfacet
facet normal -0 0.760392487 0.6494637132
outer loop
vertex -0.4105339944 -0.3092379868 0.2333869934
vertex -0.4105339944 -0.3196829855 0.2456160039
vertex 0.07643000036 -0.3196829855 0.2456160039

endloop
endfacet
facet normal -0 0.8526492119 0.5224838257
outer loop
vertex -0.4105339944 -0.3196829855 0.2456160039
vertex -0.4105339944 -0.3280859888 0.2593289912
vertex 0.07643000036 -0.3280859888 0.2593289912

endloop
endfacet
facet normal -0 0.8526492119 0.5224838257
outer loop
vertex 0.07643000036 -0.3196829855 0.2456160039
vertex -0.4105339944 -0.3196829855 0.2456160039
vertex 0.07643000036 -0.3280859888 0.2593289912

endloop
endfacet
facet normal -0.001160540734 0.7371001244 0.6757825017
outer loop
vertex 0.07643000036 -0.3024129868 0.226778999
vertex -0.4105339944 -0.3092379868 0.2333869934
vertex 0.07643000036 -0.3196829855 0.2456160039

endloop
endfacet
facet normal 0.001215049648 0.6494948864 0.7603650093
outer loop
vertex -0.4105339944 -0.2970100045 0.2229419947
vertex -0.4105339944 -0.3092379868 0.2333869934
vertex 0.07643000036 -0.3024129868 0.226778999

endloop
endfacet
facet normal -0.0009226764669 -0.07846951485 0.9969161153
outer loop
vertex -0.4105339944 -0.2207349986 0.2046310008
vertex -0.4105339944 -0.2367680073 0.2033690065
vertex 0.07643000036 -0.2433959991 0.2032980025

endloop
endfacet
facet normal 0.001213396899 0.07846955955 0.9969157577
outer loop
vertex -0.4105339944 -0.2367680073 0.2033690065
vertex -0.4105339944 -0.2528010011 0.2046310008
vertex 0.07643000036 -0.2433959991 0.2032980025

endloop
endfacet
facet normal 0 -0.05872194469 0.9982743859
outer loop
vertex 0.07643000036 -0.2207349986 0.2046310008
vertex -0.4105339944 -0.2207349986 0.2046310008
vertex 0.07643000036 -0.2433959991 0.2032980025

endloop
endfacet
facet normal 0 -0.2333663553 0.972388804
outer loop
vertex -0.4105339944 -0.2050970048 0.2083840072
vertex -0.4105339944 -0.2207349986 0.2046310008
vertex 0.07643000036 -0.2207349986 0.2046310008

endloop
endfacet
facet normal 0 -1 0
outer loop
vertex -0.4105339944 -0.4114089906 0.1243859977
vertex -0.09690599889 -0.4114089906 -0.05321199819
vertex -0.06765600294 -0.4114089906 -0.02823000029

endloop
endfacet
facet normal 0 -1 0
outer loop
vertex -0.4105339944 -0.4114089906 0.1243859977
vertex -0.06765600294 -0.4114089906 -0.02823000029
vertex -0.4105339944 -0.4114089906 0.4884580076

endloop
endfacet
facet normal 0 -1 0
outer loop
vertex -0.4105339944 -0.4114089906 0.1243859977
vertex -0.4105339944 -0.4114089906 -0.2265480012
vertex -0.1218879968 -0.4114089906 -0.08246299624

endloop
endfacet
facet normal -1 0 0
outer loop
vertex -0.4105339944 -0.4114089906 -0.2265480012
vertex -0.4105339944 -0.4114089906 0.1243859977
vertex -0.4105339944 0.7056729794 -0.2265480012

endloop
endfacet
facet normal 0 -1 0
outer loop
vertex -0.09690599889 -0.4114089906 -0.05321199819
vertex -0.4105339944 -0.4114089906 0.1243859977
vertex -0.1218879968 -0.4114089906 -0.08246299624

endloop
endfacet
facet normal -1 0 0
outer loop
vertex -0.4105339944 -0.4114089906 0.1243859977
vertex -0.4105339944 -0.4114089906 0.4884580076
vertex -0.4105339944 -0.3342410028 0.2741859853

endloop
endfacet
facet normal -1 0 0
outer loop
vertex -0.4105339944 -0.3280859888 0.2593289912
vertex -0.4105339944 -0.4114089906 0.1243859977
vertex -0.4105339944 -0.3342410028 0.2741859853

endloop
endfacet
facet normal -1 0 0
outer loop
vertex -0.4105339944 -0.3196829855 0.2456160039
vertex -0.4105339944 -0.4114089906 0.1243859977
vertex -0.4105339944 -0.3280859888 0.2593289912

endloop
endfacet
facet normal -1 0 0
outer loop
vertex -0.4105339944 -0.3092379868 0.2333869934
vertex -0.4105339944 -0.4114089906 0.1243859977
vertex -0.4105339944 -0.3196829855 0.2456160039

endloop
endfacet
facet normal -1 0 0
outer loop
vertex -0.4105339944 -0.2970100045 0.2229419947
vertex -0.4105339944 -0.4114089906 0.1243859977
vertex -0.4105339944 -0.3092379868 0.2333869934

endloop
endfacet
facet normal -1 0 0
outer loop
vertex -0.4105339944 -0.2832979858 0.2145390064
vertex -0.4105339944 -0.4114089906 0.1243859977
vertex -0.4105339944 -0.2970100045 0.2229419947

endloop
endfacet
facet normal -1 0 0
outer loop
vertex -0.4105339944 -0.2684389949 0.2083840072
vertex -0.4105339944 -0.4114089906 0.1243859977
vertex -0.4105339944 -0.2832979858 0.2145390064

endloop
endfacet
facet normal -1 0 0
outer loop
vertex -0.4105339944 -0.2528010011 0.2046310008
vertex -0.4105339944 -0.4114089906 0.1243859977
vertex -0.4105339944 -0.2684389949 0.2083840072

endloop
endfacet
facet normal -1 0 0
outer loop
vertex -0.4105339944 -0.2367680073 0.2033690065
vertex -0.4105339944 -0.4114089906 0.1243859977
vertex -0.4105339944 -0.2528010011 0.2046310008

endloop
endfacet
facet normal -1 0 0
outer loop
vertex -0.4105339944 -0.2207349986 0.2046310008
vertex -0.4105339944 -0.4114089906 0.1243859977
vertex -0.4105339944 -0.2367680073 0.2033690065

endloop
endfacet
facet normal -1 0 0
outer loop
vertex -0.4105339944 -0.2050970048 0.2083840072
vertex -0.4105339944 -0.4114089906 0.1243859977
vertex -0.4105339944 -0.2207349986 0.2046310008

endloop
endfacet
facet normal -1 0 0
outer loop
vertex -0.4105339944 -0.06047400087 0.1243859977
vertex -0.4105339944 -0.4114089906 0.1243859977
vertex -0.4105339944 -0.2050970048 0.2083840072

endloop
endfacet
facet normal -1 -0 -0
outer loop
vertex -0.4105339944 -0.4114089906 0.1243859977
vertex -0.4105339944 -0.06047400087 0.1243859977
vertex -0.4105339944 0.7056729794 -0.2265480012

endloop
endfacet
facet normal -1 0 0
outer loop
vertex -0.4105339944 -0.4114089906 -0.5774829984
vertex -0.4105339944 -0.4114089906 -0.2265480012
vertex -0.4105339944 0.7056729794 -0.2265480012

endloop
endfacet
facet normal 0 -1 0
outer loop
vertex -0.1218879968 -0.4114089906 -0.3706339896
vertex -0.4105339944 -0.4114089906 -0.2265480012
vertex -0.4105339944 -0.4114089906 -0.5774829984

endloop
endfacet
facet normal 0 -1 0
outer loop
vertex -0.1419869959 -0.4114089906 -0.3378370106
vertex -0.4105339944 -0.4114089906 -0.2265480012
vertex -0.1218879968 -0.4114089906 -0.3706339896

endloop
endfacet
facet normal 0 -1 0
outer loop
vertex -0.1567060053 -0.4114089906 -0.3022989929
vertex -0.4105339944 -0.4114089906 -0.2265480012
vertex -0.1419869959 -0.4114089906 -0.3378370106

endloop
endfacet
facet normal 0 -1 0
outer loop
vertex -0.1656869948 -0.4114089906 -0.2648960054
vertex -0.4105339944 -0.4114089906 -0.2265480012
vertex -0.1567060053 -0.4114089906 -0.3022989929

endloop
endfacet
facet normal 0 -1 0
outer loop
vertex -0.1687040031 -0.4114089906 -0.2265480012
vertex -0.4105339944 -0.4114089906 -0.2265480012
vertex -0.1656869948 -0.4114089906 -0.2648960054

endloop
endfacet
facet normal 0 -1 0
outer loop
vertex -0.1687040031 -0.4114089906 -0.2265480012
vertex -0.1656869948 -0.4114089906 -0.1882009953
vertex -0.4105339944 -0.4114089906 -0.2265480012

endloop
endfacet
facet normal 0 -1 0
outer loop
vertex -0.1656869948 -0.4114089906 -0.1882009953
vertex -0.1567060053 -0.4114089906 -0.1507979929
vertex -0.4105339944 -0.4114089906 -0.2265480012

endloop
endfacet
facet normal 0 -1 0
outer loop
vertex -0.1567060053 -0.4114089906 -0.1507979929
vertex -0.1419869959 -0.4114089906 -0.1152599975
vertex -0.4105339944 -0.4114089906 -0.2265480012

endloop
endfacet
facet normal 0 -1 0
outer loop
vertex -0.1419869959 -0.4114089906 -0.1152599975
vertex -0.1218879968 -0.4114089906 -0.08246299624
vertex -0.4105339944 -0.4114089906 -0.2265480012

endloop
endfacet
facet normal -0 -1 0
outer loop
vertex 0.2357500046 -0.4114089906 -0.5392330289
vertex 0.2827039957 -0.4114089906 -0.5104600191
vertex 0.238665998 -0.4114089906 -0.4112240076

endloop
endfacet
facet normal -0 -1 0
outer loop
vertex 0.2827039957 -0.4114089906 -0.5104600191
vertex 0.3245790005 -0.4114089906 -0.4746969938
vertex 0.238665998 -0.4114089906 -0.4112240076

endloop
endfacet
facet normal 0.5224928856 0 -0.8526436687
outer loop
vertex 0.2827039957 0.7056729794 -0.5104600191
vertex 0.2827039957 -0.4114089906 -0.5104600191
vertex 0.2357500046 -0.4114089906 -0.5392330289

endloop
endfacet
facet normal 0.649431169 0 -0.7604203224
outer loop
vertex 0.2827039957 -0.4114089906 -0.5104600191
vertex 0.2827039957 0.7056729794 -0.5104600191
vertex 0.3245790005 0.7056729794 -0.4746969938

endloop
endfacet
facet normal 0.649431169 0 -0.7604203224
outer loop
vertex 0.3245790005 0.7056729794 -0.4746969938
vertex 0.3245790005 -0.4114089906 -0.4746969938
vertex 0.2827039957 -0.4114089906 -0.5104600191

endloop
endfacet
facet normal 0.3826970458 0 -0.9238739014
outer loop
vertex 0.2357500046 0.7056729794 -0.5392330289
vertex 0.2357500046 -0.4114089906 -0.5392330289
vertex 0.1848749965 -0.4114089906 -0.5603070259

endloop
endfacet
facet normal 0.5224928856 0 -0.8526436687
outer loop
vertex 0.2357500046 0.7056729794 -0.5392330289
vertex 0.2827039957 0.7056729794 -0.5104600191
vertex 0.2357500046 -0.4114089906 -0.5392330289

endloop
endfacet
facet normal -0.3826760948 0 0.923882544
outer loop
vertex 0.1521800011 -0.4114089906 -0.4596849978
vertex 0.187718004 -0.4114089906 -0.4449650049
vertex 0.187718004 0.7056729794 -0.4449650049

endloop
endfacet
facet normal 0 -1 0
outer loop
vertex 0.187718004 -0.4114089906 -0.4449650049
vertex 0.1521800011 -0.4114089906 -0.4596849978
vertex 0.1848749965 -0.4114089906 -0.5603070259

endloop
endfacet
facet normal -0.3826760948 0 0.923882544
outer loop
vertex 0.1521800011 0.7056729794 -0.4596849978
vertex 0.1521800011 -0.4114089906 -0.4596849978
vertex 0.187718004 0.7056729794 -0.4449650049

endloop
endfacet
facet normal -0 -1 0
outer loop
vertex 0.1848749965 -0.4114089906 -0.5603070259
vertex 0.2357500046 -0.4114089906 -0.5392330289
vertex 0.187718004 -0.4114089906 -0.4449650049

endloop
endfacet
facet normal 0 -1 0
outer loop
vertex 0.238665998 -0.4114089906 -0.4112240076
vertex 0.187718004 -0.4114089906 -0.4449650049
vertex 0.2357500046 -0.4114089906 -0.5392330289

endloop
endfacet
facet normal -0.5521559119 0.0007480968488 0.8337405324
outer loop
vertex 0.187718004 -0.4114089906 -0.4449650049
vertex 0.238665998 -0.4114089906 -0.4112240076
vertex 0.2334450036 0.7056729794 -0.4156840146

endloop
endfacet
facet normal -0.5392589569 0 0.8421400189
outer loop
vertex 0.187718004 0.7056729794 -0.4449650049
vertex 0.187718004 -0.4114089906 -0.4449650049
vertex 0.2334450036 0.7056729794 -0.4156840146

endloop
endfacet
facet normal -0.07843413949 0 0.9969193339
outer loop
vertex 0.07643000036 -0.4114089906 -0.4716820121
vertex 0.1147769988 -0.4114089906 -0.4686650038
vertex 0.1147769988 0.7056729794 -0.4686650038

endloop
endfacet
facet normal -0.07843413949 0 0.9969193339
outer loop
vertex 0.07643000036 0.7056729794 -0.4716820121
vertex 0.07643000036 -0.4114089906 -0.4716820121
vertex 0.1147769988 0.7056729794 -0.4686650038

endloop
endfacet
facet normal 0.07843210548 -0 0.9969194531
outer loop
vertex 0.03808199987 -0.4114089906 -0.4686650038
vertex 0.07643000036 -0.4114089906 -0.4716820121
vertex 0.07643000036 0.7056729794 -0.4716820121

endloop
endfacet
facet normal -0.2334537208 0 0.9723678827
outer loop
vertex 0.1147769988 -0.4114089906 -0.4686650038
vertex 0.1521800011 -0.4114089906 -0.4596849978
vertex 0.1521800011 0.7056729794 -0.4596849978

endloop
endfacet
facet normal -0.2334537208 0 0.9723678827
outer loop
vertex 0.1147769988 0.7056729794 -0.4686650038
vertex 0.1147769988 -0.4114089906 -0.4686650038
vertex 0.1521800011 0.7056729794 -0.4596849978

endloop
endfacet
facet normal 0.07846654952 0 -0.9969167709
outer loop
vertex 0.1313280016 0.7056729794 -0.5731620193
vertex 0.1313280016 -0.4114089906 -0.5731620193
vertex 0.07643000036 -0.4114089906 -0.5774829984

endloop
endfacet
facet normal -0 -1 0
outer loop
vertex 0.07643000036 -0.4114089906 -0.5774829984
vertex 0.1313280016 -0.4114089906 -0.5731620193
vertex 0.07643000036 -0.4114089906 -0.4716820121

endloop
endfacet
facet normal 0.2334367335 0 -0.9723719954
outer loop
vertex 0.1313280016 0.7056729794 -0.5731620193
vertex 0.1848749965 0.7056729794 -0.5603070259
vertex 0.1313280016 -0.4114089906 -0.5731620193

endloop
endfacet
facet normal 0.2334367335 0 -0.9723719954
outer loop
vertex 0.1848749965 0.7056729794 -0.5603070259
vertex 0.1848749965 -0.4114089906 -0.5603070259
vertex 0.1313280016 -0.4114089906 -0.5731620193

endloop
endfacet
facet normal 0 -1 0
outer loop
vertex 0.1521800011 -0.4114089906 -0.4596849978
vertex 0.1313280016 -0.4114089906 -0.5731620193
vertex 0.1848749965 -0.4114089906 -0.5603070259

endloop
endfacet
facet normal 0 -1 0
outer loop
vertex 0.1521800011 -0.4114089906 -0.4596849978
vertex 0.1147769988 -0.4114089906 -0.4686650038
vertex 0.1313280016 -0.4114089906 -0.5731620193

endloop
endfacet
facet normal 0 -1 0
outer loop
vertex 0.1147769988 -0.4114089906 -0.4686650038
vertex 0.07643000036 -0.4114089906 -0.4716820121
vertex 0.1313280016 -0.4114089906 -0.5731620193

endloop
endfacet
facet normal 0 -1 0
outer loop
vertex 0.07643000036 -0.4114089906 -0.4716820121
vertex 0.03808199987 -0.4114089906 -0.4686650038
vertex 0.07643000036 -0.4114089906 -0.5774829984

endloop
endfacet
facet normal 0 -1 0
outer loop
vertex -0.4105339944 -0.4114089906 -0.5774829984
vertex 0.07643000036 -0.4114089906 -0.5774829984
vertex 0.03808199987 -0.4114089906 -0.4686650038

endloop
endfacet
facet normal 0 0 -1
outer loop
vertex 0.07643000036 0.7056729794 -0.5774829984
vertex 0.07643000036 -0.4114089906 -0.5774829984
vertex -0.4105339944 -0.4114089906 -0.5774829984

endloop
endfacet
facet normal 0.07846654952 0 -0.9969167709
outer loop
vertex 0.07643000036 0.7056729794 -0.5774829984
vertex 0.1313280016 0.7056729794 -0.5731620193
vertex 0.07643000036 -0.4114089906 -0.5774829984

endloop
endfacet
endsolid
